<?xml version="1.0" encoding="UTF-8" standalone="no"?>
<svg
   xmlns:dc="http://purl.org/dc/elements/1.1/"
   xmlns:cc="http://creativecommons.org/ns#"
   xmlns:rdf="http://www.w3.org/1999/02/22-rdf-syntax-ns#"
   xmlns:svg="http://www.w3.org/2000/svg"
   xmlns="http://www.w3.org/2000/svg"
   xmlns:sodipodi="http://sodipodi.sourceforge.net/DTD/sodipodi-0.dtd"
   xmlns:inkscape="http://www.inkscape.org/namespaces/inkscape"
   width="360pt"
   version="1.1"
   height="180pt"
   viewBox="0 0 360 180"
   id="svg3004"
   inkscape:version="0.48.4 r9939"
   sodipodi:docname="Logo BN-page001.svg">
  <metadata
     id="metadata3021">
    <rdf:RDF>
      <cc:Work
         rdf:about="">
        <dc:format>image/svg+xml</dc:format>
        <dc:type
           rdf:resource="http://purl.org/dc/dcmitype/StillImage" />
        <dc:title>Logo of the Barisan Nasional</dc:title>
      </cc:Work>
    </rdf:RDF>
  </metadata>
  <sodipodi:namedview
     pagecolor="#ffffff"
     bordercolor="#666666"
     borderopacity="1"
     objecttolerance="10"
     gridtolerance="10"
     guidetolerance="10"
     inkscape:pageopacity="0"
     inkscape:pageshadow="2"
     inkscape:window-width="1024"
     inkscape:window-height="538"
     id="namedview3019"
     showgrid="false"
     inkscape:zoom="1.3466667"
     inkscape:cx="225"
     inkscape:cy="100.19663"
     inkscape:window-x="-8"
     inkscape:window-y="-8"
     inkscape:window-maximized="1"
     inkscape:current-layer="svg3004" />
  <title
     id="title3006">Logo of the Barisan Nasional</title>
  <defs
     id="defs3008">
    <clipPath
       id="Clip0">
      <path
         d="M0 0 L460 0 L460 200 L0 200 L0 0 Z"
         transform="translate(-100, -20)"
         id="path3011" />
    </clipPath>
  </defs>
  <g
     id="1">
    <g
       id="Group2"
       clip-path="url(#Clip0)">
      <path
         style="fill:#092781; fill-rule:nonzero;stroke:none;"
         d="M360 180 L0 180 L0 0 L360 0 L360 180 Z"
         id="path3015"
         transform="translate(0, 0)" />
      <path
         style="fill:#ffffff;fill-rule:nonzero;stroke:none"
         d="m 105.7525,159.12395 -4.9136,12.91509 2.7119,0 1.0396,-2.921 5.0366,0 1.0928,2.921 2.7822,0 -5.0542,-12.91509 -2.6953,0 z m -0.3872,7.8105 1.7085,-4.79733 1.7431,4.79733 -3.4516,0 z m 89.0299,-7.8105 -4.9137,12.91509 2.7117,0 1.04,-2.921 5.037,0 1.091,2.921 2.783,0 -5.054,-12.91509 -2.695,0 z m -0.387,7.8105 1.708,-4.79733 1.744,4.79733 -3.452,0 z m -71.7352,-0.57662 0,-0.0379 c 0.4932,-0.0522 0.9692,-0.19665 1.4092,-0.39534 1.2329,-0.52337 1.9194,-1.76879 1.9194,-3.17398 0,-1.26284 -0.5986,-2.74279 -2.0605,-3.30201 -0.3873,-0.12597 -1.004,-0.32466 -2.8882,-0.32466 l -5.354,0 0,12.91509 2.5361,0 0,-5.39239 0.5107,0 c 1.708,0 1.8667,0.25196 3.399,2.57893 l 1.8315,2.81346 3.0469,0 -1.5318,-2.52464 c -1.268,-2.07502 -1.7617,-2.5441 -2.8183,-3.15657 z m -2.5537,-1.76878 -1.8843,0 0,-3.28152 1.9897,0 c 1.7085,0 2.0254,0 2.5015,0.28779 0.4751,0.28985 0.6514,0.79376 0.6514,1.31609 0,0.37793 -0.0884,1.20855 -0.9683,1.51581 -0.4404,0.16183 -1.5151,0.16183 -2.29,0.16183 z m 8.5947,7.44999 2.5366,0 0,-12.91509 -2.5366,0 0,12.91509 z m 87.6742,0 2.535,0 0,-12.91509 -2.535,0 0,12.91509 z m 36.388,-12.91509 -4.914,12.91509 2.712,0 1.039,-2.921 5.037,0 1.092,2.921 2.782,0 -5.054,-12.91509 -2.694,0 z m -0.389,7.8105 1.709,-4.79733 1.743,4.79733 -3.452,0 z m -113.0526,-2.92203 c -2.0259,-0.48648 -2.8184,-0.847 -2.8184,-1.6766 0,-1.04673 1.3741,-1.28127 2.1314,-1.28127 2.0073,0 2.2017,1.20855 2.3071,1.8753 l 2.5537,-0.10856 c -0.1059,-2.92101 -2.3603,-3.91345 -4.8256,-3.91345 -3.6988,0 -4.5972,2.20099 -4.5972,3.60721 0,2.85034 2.7832,3.55395 4.0337,3.87966 2.3247,0.57559 3.2051,0.81013 3.2051,1.8927 0,0.83063 -0.7041,1.78722 -2.4834,1.78722 -2.2896,0 -2.6236,-1.80565 -2.7476,-2.47241 l -2.4653,0.23455 c 0.4931,4.2924 3.8393,4.4194 5.1953,4.4194 0.581,0 1.8496,-0.0369 2.9765,-0.57663 1.0918,-0.50492 2.0606,-1.82203 2.0606,-3.39213 0,-3.17398 -2.606,-3.8059 -4.5259,-4.27499 z m -41.2485,1.15428 c 1.1626,-0.52337 1.7793,-1.66022 1.7793,-2.79504 0,-1.15632 -0.6167,-2.03916 -1.3565,-2.57892 -0.81,-0.59608 -1.8139,-0.66879 -3.5571,-0.66879 l -5.0376,0 0,12.91509 4.2974,0 c 2.6772,0 3.4873,-0.0533 4.227,-0.37896 1.356,-0.61246 2.0435,-2.09243 2.0435,-3.37267 0,-0.72205 -0.229,-2.47137 -2.396,-3.12071 z m -5.6353,-3.85917 1.479,0 c 1.8321,0 2.1309,0 2.5015,0.10754 0.6514,0.18025 0.9507,0.79375 0.9507,1.37037 0,1.37037 -1.3033,1.47996 -2.1665,1.47996 l -2.7647,0 0,-2.95787 z m 4.3672,8.40556 c -0.3867,0.14442 -1.4614,0.14442 -2.0078,0.14442 l -2.3594,0 0,-3.40955 2.0601,0 c 1.7793,0 3.3462,0 3.3462,1.76674 0,0.3984 -0.1055,1.15426 -1.0391,1.49839 z m 168.0392,0.14442 0,-10.73356 -2.536,0 0,12.91509 8.877,0 0,-2.18153 -6.341,0 z m -79.1495,-2.11087 -0.0342,0 -5.126,-8.62269 -2.4663,0 0,12.91509 2.3599,0 0,-8.42298 0.0356,0 5.0366,8.42298 2.5547,0 0,-12.91509 -2.3603,0 0,8.62269 z m 57.9795,0 -0.035,0 -5.125,-8.62269 -2.466,0 0,12.91509 2.36,0 0,-8.42298 0.036,0 5.037,8.42298 2.552,0 0,-12.91509 -2.359,0 0,8.62269 z m -16.292,-8.8388 c -3.91,0 -6.094,2.61477 -6.094,6.74637 0,2.97631 1.393,6.60196 6.13,6.60196 4.42,0 6.076,-3.28357 6.076,-6.65624 0,-3.77007 -1.991,-6.69209 -6.112,-6.69209 z m 0.019,11.11252 c -1.533,0 -2.43,-0.8675 -2.854,-1.62541 -0.3,-0.52233 -0.634,-1.35091 -0.634,-2.81346 0,-1.89374 0.599,-4.43681 3.488,-4.43681 3.1,0 3.468,2.94047 3.468,4.40096 0,3.73319 -2.131,4.47472 -3.468,4.47472 z m -77.4243,-10.89641 -4.9136,12.91509 2.7119,0 1.0391,-2.921 5.0376,0 1.0913,2.921 2.7832,0 -5.0552,-12.91509 -2.6943,0 z m -0.3877,7.8105 1.7085,-4.79733 1.7436,4.79733 -3.4521,0 z m 17.6123,0.81219 -0.0347,0 -5.1255,-8.62269 -2.4663,0 0,12.91509 2.3604,0 0,-8.42298 0.0351,0 5.0371,8.42298 2.5542,0 0,-12.91509 -2.3603,0 0,8.62269 z m 42.2697,-3.73422 c -2.027,-0.48648 -2.818,-0.847 -2.818,-1.6766 0,-1.04673 1.373,-1.28127 2.131,-1.28127 2.007,0 2.201,1.20855 2.307,1.8753 l 2.554,-0.10856 c -0.106,-2.92101 -2.36,-3.91345 -4.826,-3.91345 -3.699,0 -4.596,2.20099 -4.596,3.60721 0,2.85034 2.781,3.55395 4.031,3.87966 2.326,0.57559 3.207,0.81013 3.207,1.8927 0,0.83063 -0.704,1.78722 -2.483,1.78722 -2.29,0 -2.624,-1.80565 -2.748,-2.47241 l -2.466,0.23455 c 0.493,4.2924 3.84,4.4194 5.196,4.4194 0.581,0 1.85,-0.0369 2.977,-0.57663 1.091,-0.50492 2.06,-1.82203 2.06,-3.39213 0,-3.17398 -2.606,-3.8059 -4.526,-4.27499 z m -8.189,-20.88231 24.962,0 0.248,0 24.958,0 c 11.665,0 12.302,-15.24412 12.328,-17.92034 l 0.121,-0.0696 -0.121,-0.20893 c 0,-0.0758 0,-0.12905 0,-0.12905 l -0.073,0 -35.86,-63.505207 -0.485,-0.864114 c 0.349,0.038 0.715,0.06001 1.109,0.06996 6.253,0.146563 5.538,-5.016405 5.538,-5.016405 0,0 -0.14,-5.333495 -4.022,-6.673757 l 0.173,0 0,-3.948783 3.927,0 0,-5.669124 -3.927,0 0,-3.859166 -5.963,0 0,3.859166 -41.5533,0 0,-1.155702 c 3.4893,-1.007705 6.0625,-4.258807 6.0625,-8.155972 0,-4.701464 -3.7178,-8.509216 -8.31,-8.509216 -4.5884,0 -8.313,3.807752 -8.313,8.509216 0,3.862137 2.5302,7.086303 5.9756,8.125963 l 0,1.185711 -41.4571,0 0,-3.859166 -5.9658,0 0,3.859166 -3.9267,0 0,5.669124 3.9267,0 0,3.948783 0.1738,0 c -3.8891,1.340262 -4.0254,6.673757 -4.0254,6.673757 0,0 -0.7089,5.162968 5.5362,5.016405 0.395,-0.0099 0.7651,-0.03493 1.1162,-0.07343 l -0.4912,0.867595 -35.857,63.505212 -0.0722,0 c 0,0 0,0.0533 0,0.12905 l -0.1182,0.20893 0.1182,0.0696 c 0.022,2.67622 0.6621,17.92034 12.3237,17.92034 l 24.9644,0 0.2485,0 24.958,0 c 11.7515,0 12.311,-15.48071 12.3233,-17.97565 l 0.019,-0.0143 -0.019,-0.039 c 0,-0.18538 0,-0.29907 0,-0.29907 l -0.1675,0 -36.5386,-64.709866 c 3.5474,-1.060247 3.7959,-3.806728 3.7959,-3.806728 -3.4043,0.946151 -5.605,0.870668 -6.1065,-1.67333 -0.4995,-2.546968 3.7657,-3.493222 3.7657,-3.493222 l 0,-2.306385 0.0185,0 0,-3.948783 41.4571,0 0,0.727691 0.0366,0 1.1133,1.676812 1.1469,1.711327 1.1387,-1.711327 1.1152,-1.676812 0.0342,0 0,-0.727691 41.5533,0 0,3.948783 0.015,0 0,2.306385 c 0,0 4.262,0.946254 3.763,3.493222 -0.495,2.543998 -2.699,2.619481 -6.107,1.67333 0,0 0.246,2.746481 3.796,3.806728 l -36.5379,64.709866 -0.165,0 c 0,0 -0.003,0.11369 0,0.29907 l -0.0254,0.039 0.0254,0.0143 c 0.0127,2.49494 0.5684,17.97565 12.3229,17.97565 z m 26.876,-74.514278 c 6.316,11.180624 26.671,47.236478 31.73,56.186308 l -31.73,0 0,-56.186308 z m -95.5285,56.186308 -31.7261,0 c 5.0557,-8.94983 25.4151,-45.005684 31.7261,-56.186308 l 0,56.186308 z m 3.4912,-56.186308 c 6.3145,11.180624 26.6714,47.236478 31.7261,56.186308 l -31.7261,0 0,-56.186308 z m 44.2735,-33.487386 c -2.8291,0 -5.1236,-2.347865 -5.1236,-5.245415 0,-2.899086 2.2945,-5.247053 5.1236,-5.247053 2.8325,0 5.1274,2.347967 5.1274,5.247053 0,2.89755 -2.2949,5.245415 -5.1274,5.245415 z m 44.2798,33.487386 0,56.186308 -31.729,0 c 5.054,-8.94983 25.412,-45.005684 31.729,-56.186308 z m -28.223,-23.677954 -3.649,0 c -1.828,4.229311 -5.6583,7.353413 -10.2501,8.109473 l -1.0166,-1.52523 -1.1411,-1.711328 -1.1377,1.711328 -1.0201,1.52523 c -4.5883,-0.759133 -8.4184,-3.880162 -10.2465,-8.109473 l -3.6494,0 c 2.2817,6.841725 8.6118,11.783671 16.0566,11.783671 7.4468,0 13.7699,-4.941946 16.0539,-11.783671 z"
         id="path3017"
         inkscape:connector-curvature="0" />
    </g>
  </g>
  <rect
     style="fill:#092781;fill-opacity:1;stroke:none"
     id="rect3023"
     width="197.84988"
     height="25.203806"
     x="82.536278"
     y="149.42493" />
</svg>
